<?xml version="1.0" encoding="UTF-8"?>
<!DOCTYPE svg
PUBLIC "-//W3C//DTD SVG 1.1//EN"
       "http://www.w3.org/Graphics/SVG/1.1/DTD/svg11.dtd">
<svg viewBox="75 -2 1443 1070" width="1368px" height="1072px" xmlns="http://www.w3.org/2000/svg" version="1.1">
   <line x1="677" y1="438" x2="687" y2="438" style="stroke:#0bf;stroke-width:1;"/>
   <line x1="643" y1="92" x2="633" y2="92" style="stroke:#0bf;stroke-width:1;"/>
   <line x1="687" y1="438" x2="643" y2="92" style="stroke:#0bf;stroke-width:1;"/>
   <line x1="684.5" y1="438" x2="680.96446609407" y2="441.53553390593" style="stroke:#0bf;stroke-width:2;"/>
   <line x1="684.5" y1="438" x2="680.96446609407" y2="434.46446609407" style="stroke:#0bf;stroke-width:2;"/>
   <line x1="638" y1="92" x2="641.53553390593" y2="95.535533905933" style="stroke:#0bf;stroke-width:2;"/>
   <line x1="638" y1="92" x2="641.53553390593" y2="88.464466094067" style="stroke:#0bf;stroke-width:2;"/>
   <line x1="978" y1="276" x2="968" y2="276" style="stroke:#c00;stroke-width:1;"/>
   <line x1="881" y1="261" x2="871" y2="261" style="stroke:#c00;stroke-width:1;"/>
   <line x1="968" y1="276" x2="881" y2="261" style="stroke:#c00;stroke-width:1;"/>
   <line x1="970.5" y1="276" x2="974.03553390593" y2="279.53553390593" style="stroke:#c00;stroke-width:2;"/>
   <line x1="970.5" y1="276" x2="974.03553390593" y2="272.46446609407" style="stroke:#c00;stroke-width:2;"/>
   <line x1="876" y1="261" x2="879.53553390593" y2="264.53553390593" style="stroke:#c00;stroke-width:2;"/>
   <line x1="876" y1="261" x2="879.53553390593" y2="257.46446609407" style="stroke:#c00;stroke-width:2;"/>
   <line x1="978" y1="256" x2="968" y2="256" style="stroke:#cb0;stroke-width:1;"/>
   <line x1="967" y1="373" x2="977" y2="373" style="stroke:#cb0;stroke-width:1;"/>
   <line x1="968" y1="256" x2="967" y2="373" style="stroke:#cb0;stroke-width:1;"/>
   <line x1="970.5" y1="256" x2="974.03553390593" y2="259.53553390593" style="stroke:#cb0;stroke-width:2;"/>
   <line x1="970.5" y1="256" x2="974.03553390593" y2="252.46446609407" style="stroke:#cb0;stroke-width:2;"/>
   <line x1="972" y1="373" x2="968.46446609407" y2="376.53553390593" style="stroke:#cb0;stroke-width:2;"/>
   <line x1="972" y1="373" x2="968.46446609407" y2="369.46446609407" style="stroke:#cb0;stroke-width:2;"/>
   <line x1="329" y1="103" x2="339" y2="103" style="stroke:#c00;stroke-width:1;"/>
   <line x1="480" y1="92" x2="490" y2="92" style="stroke:#c00;stroke-width:1;"/>
   <line x1="339" y1="103" x2="480" y2="92" style="stroke:#c00;stroke-width:1;"/>
   <line x1="336.5" y1="103" x2="332.96446609407" y2="106.53553390593" style="stroke:#c00;stroke-width:2;"/>
   <line x1="336.5" y1="103" x2="332.96446609407" y2="99.464466094067" style="stroke:#c00;stroke-width:2;"/>
   <line x1="485" y1="92" x2="481.46446609407" y2="95.535533905933" style="stroke:#c00;stroke-width:2;"/>
   <line x1="485" y1="92" x2="481.46446609407" y2="88.464466094067" style="stroke:#c00;stroke-width:2;"/>
   <line x1="329" y1="83" x2="339" y2="83" style="stroke:#0bf;stroke-width:1;"/>
   <line x1="533" y1="418" x2="543" y2="418" style="stroke:#0bf;stroke-width:1;"/>
   <line x1="339" y1="83" x2="533" y2="418" style="stroke:#0bf;stroke-width:1;"/>
   <line x1="336.5" y1="83" x2="332.96446609407" y2="86.535533905933" style="stroke:#0bf;stroke-width:2;"/>
   <line x1="336.5" y1="83" x2="332.96446609407" y2="79.464466094067" style="stroke:#0bf;stroke-width:2;"/>
   <line x1="538" y1="418" x2="534.46446609407" y2="421.53553390593" style="stroke:#0bf;stroke-width:2;"/>
   <line x1="538" y1="418" x2="534.46446609407" y2="414.46446609407" style="stroke:#0bf;stroke-width:2;"/>
   <line x1="329" y1="63" x2="339" y2="63" style="stroke:#333;stroke-width:1;"/>
   <line x1="974" y1="44" x2="984" y2="44" style="stroke:#333;stroke-width:1;"/>
   <line x1="339" y1="63" x2="974" y2="44" style="stroke:#333;stroke-width:1;"/>
   <line x1="336.5" y1="63" x2="332.96446609407" y2="66.535533905933" style="stroke:#333;stroke-width:2;"/>
   <line x1="336.5" y1="63" x2="332.96446609407" y2="59.464466094067" style="stroke:#333;stroke-width:2;"/>
   <line x1="979" y1="44" x2="975.46446609407" y2="47.535533905933" style="stroke:#333;stroke-width:2;"/>
   <line x1="979" y1="44" x2="975.46446609407" y2="40.464466094067" style="stroke:#333;stroke-width:2;"/>
   <line x1="984" y1="144" x2="974" y2="144" style="stroke:#333;stroke-width:1;"/>
   <line x1="858" y1="129" x2="848" y2="129" style="stroke:#333;stroke-width:1;"/>
   <line x1="974" y1="144" x2="858" y2="129" style="stroke:#333;stroke-width:1;"/>
   <line x1="976.5" y1="144" x2="980.03553390593" y2="147.53553390593" style="stroke:#333;stroke-width:2;"/>
   <line x1="976.5" y1="144" x2="980.03553390593" y2="140.46446609407" style="stroke:#333;stroke-width:2;"/>
   <line x1="853" y1="129" x2="856.53553390593" y2="132.53553390593" style="stroke:#333;stroke-width:2;"/>
   <line x1="853" y1="129" x2="856.53553390593" y2="125.46446609407" style="stroke:#333;stroke-width:2;"/>
   <line x1="1257" y1="525" x2="1247" y2="525" style="stroke:#bbb;stroke-width:1;"/>
   <line x1="1121" y1="44" x2="1111" y2="44" style="stroke:#bbb;stroke-width:1;"/>
   <line x1="1247" y1="525" x2="1121" y2="44" style="stroke:#bbb;stroke-width:1;"/>
   <line x1="1249.5" y1="525" x2="1253.0355339059" y2="528.53553390593" style="stroke:#bbb;stroke-width:2;"/>
   <line x1="1249.5" y1="525" x2="1253.0355339059" y2="521.46446609407" style="stroke:#bbb;stroke-width:2;"/>
   <line x1="1116" y1="44" x2="1119.5355339059" y2="47.535533905933" style="stroke:#bbb;stroke-width:2;"/>
   <line x1="1116" y1="44" x2="1119.5355339059" y2="40.464466094067" style="stroke:#bbb;stroke-width:2;"/>
   <line x1="1280" y1="70" x2="1270" y2="70" style="stroke:#333;stroke-width:1;"/>
   <line x1="1121" y1="44" x2="1111" y2="44" style="stroke:#333;stroke-width:1;"/>
   <line x1="1270" y1="70" x2="1121" y2="44" style="stroke:#333;stroke-width:1;"/>
   <line x1="1272.5" y1="70" x2="1276.0355339059" y2="73.535533905933" style="stroke:#333;stroke-width:2;"/>
   <line x1="1272.5" y1="70" x2="1276.0355339059" y2="66.464466094067" style="stroke:#333;stroke-width:2;"/>
   <line x1="1116" y1="44" x2="1119.5355339059" y2="47.535533905933" style="stroke:#333;stroke-width:2;"/>
   <line x1="1116" y1="44" x2="1119.5355339059" y2="40.464466094067" style="stroke:#333;stroke-width:2;"/>
   <line x1="1261" y1="273" x2="1251" y2="273" style="stroke:#333;stroke-width:1;"/>
   <line x1="1121" y1="44" x2="1111" y2="44" style="stroke:#333;stroke-width:1;"/>
   <line x1="1251" y1="273" x2="1121" y2="44" style="stroke:#333;stroke-width:1;"/>
   <line x1="1253.5" y1="273" x2="1257.0355339059" y2="276.53553390593" style="stroke:#333;stroke-width:2;"/>
   <line x1="1253.5" y1="273" x2="1257.0355339059" y2="269.46446609407" style="stroke:#333;stroke-width:2;"/>
   <line x1="1116" y1="44" x2="1119.5355339059" y2="47.535533905933" style="stroke:#333;stroke-width:2;"/>
   <line x1="1116" y1="44" x2="1119.5355339059" y2="40.464466094067" style="stroke:#333;stroke-width:2;"/>
   <rect width="116" height="20" x="755" y="231" style="fill:#007;stroke:black;"/>
   <text width="116" height="20" x="760" y="245" style="fill:#fff;" font-family="Arial" font-size="16px"> category</text>
   <rect width="116" height="20" x="755" y="251" style="fill:#aea;stroke:black;"/>
   <text width="116" height="20" x="760" y="265" style="fill:black;" font-family="Arial" font-size="16px">id</text>
   <rect width="116" height="20" x="755" y="271" style="fill:none;stroke:black;"/>
   <text width="116" height="20" x="760" y="285" style="fill:black;" font-family="Arial" font-size="16px">category_name</text>
   <rect width="116" height="20" x="755" y="291" style="fill:none;stroke:black;"/>
   <text width="116" height="20" x="760" y="305" style="fill:black;" font-family="Arial" font-size="16px">description</text>
   <rect width="116" height="20" x="755" y="311" style="fill:none;stroke:black;"/>
   <text width="116" height="20" x="760" y="325" style="fill:black;" font-family="Arial" font-size="16px">organization_id</text>
   <rect width="116" height="20" x="755" y="331" style="fill:none;stroke:black;"/>
   <text width="116" height="20" x="760" y="345" style="fill:black;" font-family="Arial" font-size="16px">created_at</text>
   <rect width="116" height="20" x="755" y="351" style="fill:none;stroke:black;"/>
   <text width="116" height="20" x="760" y="365" style="fill:black;" font-family="Arial" font-size="16px">updated_at</text>
   <rect width="83" height="20" x="1010" y="523" style="fill:#007;stroke:black;"/>
   <text width="83" height="20" x="1015" y="537" style="fill:#fff;" font-family="Arial" font-size="16px"> migrations</text>
   <rect width="83" height="20" x="1010" y="543" style="fill:#aea;stroke:black;"/>
   <text width="83" height="20" x="1015" y="557" style="fill:black;" font-family="Arial" font-size="16px">id</text>
   <rect width="83" height="20" x="1010" y="563" style="fill:none;stroke:black;"/>
   <text width="83" height="20" x="1015" y="577" style="fill:black;" font-family="Arial" font-size="16px">migration</text>
   <rect width="83" height="20" x="1010" y="583" style="fill:none;stroke:black;"/>
   <text width="83" height="20" x="1015" y="597" style="fill:black;" font-family="Arial" font-size="16px">batch</text>
   <rect width="143" height="20" x="490" y="62" style="fill:#007;stroke:black;"/>
   <text width="143" height="20" x="495" y="76" style="fill:#fff;" font-family="Arial" font-size="16px"> organization</text>
   <rect width="143" height="20" x="490" y="82" style="fill:#aea;stroke:black;"/>
   <text width="143" height="20" x="495" y="96" style="fill:black;" font-family="Arial" font-size="16px">id</text>
   <rect width="143" height="20" x="490" y="102" style="fill:none;stroke:black;"/>
   <text width="143" height="20" x="495" y="116" style="fill:black;" font-family="Arial" font-size="16px">user_id</text>
   <rect width="143" height="20" x="490" y="122" style="fill:none;stroke:black;"/>
   <text width="143" height="20" x="495" y="136" style="fill:black;" font-family="Arial" font-size="16px">organization_name</text>
   <rect width="143" height="20" x="490" y="142" style="fill:none;stroke:black;"/>
   <text width="143" height="20" x="495" y="156" style="fill:black;" font-family="Arial" font-size="16px">address</text>
   <rect width="143" height="20" x="490" y="162" style="fill:none;stroke:black;"/>
   <text width="143" height="20" x="495" y="176" style="fill:black;" font-family="Arial" font-size="16px">phone_number</text>
   <rect width="143" height="20" x="490" y="182" style="fill:none;stroke:black;"/>
   <text width="143" height="20" x="495" y="196" style="fill:black;" font-family="Arial" font-size="16px">contact_person</text>
   <rect width="143" height="20" x="490" y="202" style="fill:none;stroke:black;"/>
   <text width="143" height="20" x="495" y="216" style="fill:black;" font-family="Arial" font-size="16px">status</text>
   <rect width="143" height="20" x="490" y="222" style="fill:none;stroke:black;"/>
   <text width="143" height="20" x="495" y="236" style="fill:black;" font-family="Arial" font-size="16px">created_at</text>
   <rect width="143" height="20" x="490" y="242" style="fill:none;stroke:black;"/>
   <text width="143" height="20" x="495" y="256" style="fill:black;" font-family="Arial" font-size="16px">updated_at</text>
   <rect width="123" height="20" x="753" y="519" style="fill:#007;stroke:black;"/>
   <text width="123" height="20" x="758" y="533" style="fill:#fff;" font-family="Arial" font-size="16px"> password_resets</text>
   <rect width="123" height="20" x="753" y="539" style="fill:none;stroke:black;"/>
   <text width="123" height="20" x="758" y="553" style="fill:black;" font-family="Arial" font-size="16px">email</text>
   <rect width="123" height="20" x="753" y="559" style="fill:none;stroke:black;"/>
   <text width="123" height="20" x="758" y="573" style="fill:black;" font-family="Arial" font-size="16px">token</text>
   <rect width="123" height="20" x="753" y="579" style="fill:none;stroke:black;"/>
   <text width="123" height="20" x="758" y="593" style="fill:black;" font-family="Arial" font-size="16px">created_at</text>
   <rect width="134" height="20" x="543" y="388" style="fill:#007;stroke:black;"/>
   <text width="134" height="20" x="548" y="402" style="fill:#fff;" font-family="Arial" font-size="16px"> policies</text>
   <rect width="134" height="20" x="543" y="408" style="fill:#aea;stroke:black;"/>
   <text width="134" height="20" x="548" y="422" style="fill:black;" font-family="Arial" font-size="16px">id</text>
   <rect width="134" height="20" x="543" y="428" style="fill:none;stroke:black;"/>
   <text width="134" height="20" x="548" y="442" style="fill:black;" font-family="Arial" font-size="16px">organization_id</text>
   <rect width="134" height="20" x="543" y="448" style="fill:none;stroke:black;"/>
   <text width="134" height="20" x="548" y="462" style="fill:black;" font-family="Arial" font-size="16px">policy_name</text>
   <rect width="134" height="20" x="543" y="468" style="fill:none;stroke:black;"/>
   <text width="134" height="20" x="548" y="482" style="fill:black;" font-family="Arial" font-size="16px">policy_type</text>
   <rect width="134" height="20" x="543" y="488" style="fill:none;stroke:black;"/>
   <text width="134" height="20" x="548" y="502" style="fill:black;" font-family="Arial" font-size="16px">policy_periods</text>
   <rect width="134" height="20" x="543" y="508" style="fill:none;stroke:black;"/>
   <text width="134" height="20" x="548" y="522" style="fill:black;" font-family="Arial" font-size="16px">policy_value</text>
   <rect width="134" height="20" x="543" y="528" style="fill:none;stroke:black;"/>
   <text width="134" height="20" x="548" y="542" style="fill:black;" font-family="Arial" font-size="16px">policy_description</text>
   <rect width="134" height="20" x="543" y="548" style="fill:none;stroke:black;"/>
   <text width="134" height="20" x="548" y="562" style="fill:black;" font-family="Arial" font-size="16px">status</text>
   <rect width="134" height="20" x="543" y="568" style="fill:none;stroke:black;"/>
   <text width="134" height="20" x="548" y="582" style="fill:black;" font-family="Arial" font-size="16px">created_at</text>
   <rect width="134" height="20" x="543" y="588" style="fill:none;stroke:black;"/>
   <text width="134" height="20" x="548" y="602" style="fill:black;" font-family="Arial" font-size="16px">updated_at</text>
   <rect width="121" height="20" x="977" y="343" style="fill:#007;stroke:black;"/>
   <text width="121" height="20" x="982" y="357" style="fill:#fff;" font-family="Arial" font-size="16px"> quote</text>
   <rect width="121" height="20" x="977" y="363" style="fill:#aea;stroke:black;"/>
   <text width="121" height="20" x="982" y="377" style="fill:black;" font-family="Arial" font-size="16px">id</text>
   <rect width="121" height="20" x="977" y="383" style="fill:none;stroke:black;"/>
   <text width="121" height="20" x="982" y="397" style="fill:black;" font-family="Arial" font-size="16px">name</text>
   <rect width="121" height="20" x="977" y="403" style="fill:none;stroke:black;"/>
   <text width="121" height="20" x="982" y="417" style="fill:black;" font-family="Arial" font-size="16px">subject</text>
   <rect width="121" height="20" x="977" y="423" style="fill:none;stroke:black;"/>
   <text width="121" height="20" x="982" y="437" style="fill:black;" font-family="Arial" font-size="16px">created_at</text>
   <rect width="121" height="20" x="977" y="443" style="fill:none;stroke:black;"/>
   <text width="121" height="20" x="982" y="457" style="fill:black;" font-family="Arial" font-size="16px">updated_at</text>
   <rect width="121" height="20" x="977" y="463" style="fill:none;stroke:black;"/>
   <text width="121" height="20" x="982" y="477" style="fill:black;" font-family="Arial" font-size="16px">description</text>
   <rect width="121" height="20" x="977" y="483" style="fill:none;stroke:black;"/>
   <text width="121" height="20" x="982" y="497" style="fill:black;" font-family="Arial" font-size="16px">email</text>
   <rect width="121" height="20" x="977" y="503" style="fill:none;stroke:black;"/>
   <text width="121" height="20" x="982" y="517" style="fill:black;" font-family="Arial" font-size="16px">contact_number</text>
   <rect width="89" height="20" x="978" y="206" style="fill:#007;stroke:black;"/>
   <text width="89" height="20" x="983" y="220" style="fill:#fff;" font-family="Arial" font-size="16px"> quote_item</text>
   <rect width="89" height="20" x="978" y="226" style="fill:#aea;stroke:black;"/>
   <text width="89" height="20" x="983" y="240" style="fill:black;" font-family="Arial" font-size="16px">id</text>
   <rect width="89" height="20" x="978" y="246" style="fill:none;stroke:black;"/>
   <text width="89" height="20" x="983" y="260" style="fill:black;" font-family="Arial" font-size="16px">quote_id</text>
   <rect width="89" height="20" x="978" y="266" style="fill:none;stroke:black;"/>
   <text width="89" height="20" x="983" y="280" style="fill:black;" font-family="Arial" font-size="16px">category_id</text>
   <rect width="89" height="20" x="978" y="286" style="fill:none;stroke:black;"/>
   <text width="89" height="20" x="983" y="300" style="fill:black;" font-family="Arial" font-size="16px">policy_id</text>
   <rect width="89" height="20" x="978" y="306" style="fill:none;stroke:black;"/>
   <text width="89" height="20" x="983" y="320" style="fill:black;" font-family="Arial" font-size="16px">created_at</text>
   <rect width="89" height="20" x="978" y="326" style="fill:none;stroke:black;"/>
   <text width="89" height="20" x="983" y="340" style="fill:black;" font-family="Arial" font-size="16px">updated_at</text>
   <rect width="239" height="20" x="90" y="13" style="fill:#007;stroke:black;"/>
   <text width="239" height="20" x="95" y="27" style="fill:#fff;" font-family="Arial" font-size="16px"> report_claim</text>
   <rect width="239" height="20" x="90" y="33" style="fill:#aea;stroke:black;"/>
   <text width="239" height="20" x="95" y="47" style="fill:black;" font-family="Arial" font-size="16px">id</text>
   <rect width="239" height="20" x="90" y="53" style="fill:none;stroke:black;"/>
   <text width="239" height="20" x="95" y="67" style="fill:black;" font-family="Arial" font-size="16px">user_id</text>
   <rect width="239" height="20" x="90" y="73" style="fill:none;stroke:black;"/>
   <text width="239" height="20" x="95" y="87" style="fill:black;" font-family="Arial" font-size="16px">policy_id</text>
   <rect width="239" height="20" x="90" y="93" style="fill:none;stroke:black;"/>
   <text width="239" height="20" x="95" y="107" style="fill:black;" font-family="Arial" font-size="16px">organization_id</text>
   <rect width="239" height="20" x="90" y="113" style="fill:none;stroke:black;"/>
   <text width="239" height="20" x="95" y="127" style="fill:black;" font-family="Arial" font-size="16px">owner_damaged_property</text>
   <rect width="239" height="20" x="90" y="133" style="fill:none;stroke:black;"/>
   <text width="239" height="20" x="95" y="147" style="fill:black;" font-family="Arial" font-size="16px">address</text>
   <rect width="239" height="20" x="90" y="153" style="fill:none;stroke:black;"/>
   <text width="239" height="20" x="95" y="167" style="fill:black;" font-family="Arial" font-size="16px">phone_number</text>
   <rect width="239" height="20" x="90" y="173" style="fill:none;stroke:black;"/>
   <text width="239" height="20" x="95" y="187" style="fill:black;" font-family="Arial" font-size="16px">injured_party_information</text>
   <rect width="239" height="20" x="90" y="193" style="fill:none;stroke:black;"/>
   <text width="239" height="20" x="95" y="207" style="fill:black;" font-family="Arial" font-size="16px">injured_person_name</text>
   <rect width="239" height="20" x="90" y="213" style="fill:none;stroke:black;"/>
   <text width="239" height="20" x="95" y="227" style="fill:black;" font-family="Arial" font-size="16px">injured_person_address</text>
   <rect width="239" height="20" x="90" y="233" style="fill:none;stroke:black;"/>
   <text width="239" height="20" x="95" y="247" style="fill:black;" font-family="Arial" font-size="16px">injured_person_number</text>
   <rect width="239" height="20" x="90" y="253" style="fill:none;stroke:black;"/>
   <text width="239" height="20" x="95" y="267" style="fill:black;" font-family="Arial" font-size="16px">injured_person_alternate_number</text>
   <rect width="239" height="20" x="90" y="273" style="fill:none;stroke:black;"/>
   <text width="239" height="20" x="95" y="287" style="fill:black;" font-family="Arial" font-size="16px">injured_person_dob</text>
   <rect width="239" height="20" x="90" y="293" style="fill:none;stroke:black;"/>
   <text width="239" height="20" x="95" y="307" style="fill:black;" font-family="Arial" font-size="16px">injured_person_guardian</text>
   <rect width="239" height="20" x="90" y="313" style="fill:none;stroke:black;"/>
   <text width="239" height="20" x="95" y="327" style="fill:black;" font-family="Arial" font-size="16px">damage_injury_date</text>
   <rect width="239" height="20" x="90" y="333" style="fill:none;stroke:black;"/>
   <text width="239" height="20" x="95" y="347" style="fill:black;" font-family="Arial" font-size="16px">location_of_incident</text>
   <rect width="239" height="20" x="90" y="353" style="fill:none;stroke:black;"/>
   <text width="239" height="20" x="95" y="367" style="fill:black;" font-family="Arial" font-size="16px">activity</text>
   <rect width="239" height="20" x="90" y="373" style="fill:none;stroke:black;"/>
   <text width="239" height="20" x="95" y="387" style="fill:black;" font-family="Arial" font-size="16px">status</text>
   <rect width="239" height="20" x="90" y="393" style="fill:none;stroke:black;"/>
   <text width="239" height="20" x="95" y="407" style="fill:black;" font-family="Arial" font-size="16px">description_of_accident</text>
   <rect width="239" height="20" x="90" y="413" style="fill:none;stroke:black;"/>
   <text width="239" height="20" x="95" y="427" style="fill:black;" font-family="Arial" font-size="16px">created_at</text>
   <rect width="239" height="20" x="90" y="433" style="fill:none;stroke:black;"/>
   <text width="239" height="20" x="95" y="447" style="fill:black;" font-family="Arial" font-size="16px">updated_at</text>
   <rect width="86" height="20" x="762" y="99" style="fill:#007;stroke:black;"/>
   <text width="86" height="20" x="767" y="113" style="fill:#fff;" font-family="Arial" font-size="16px"> roles</text>
   <rect width="86" height="20" x="762" y="119" style="fill:#aea;stroke:black;"/>
   <text width="86" height="20" x="767" y="133" style="fill:black;" font-family="Arial" font-size="16px">id</text>
   <rect width="86" height="20" x="762" y="139" style="fill:none;stroke:black;"/>
   <text width="86" height="20" x="767" y="153" style="fill:black;" font-family="Arial" font-size="16px">role_name</text>
   <rect width="86" height="20" x="762" y="159" style="fill:none;stroke:black;"/>
   <text width="86" height="20" x="767" y="173" style="fill:black;" font-family="Arial" font-size="16px">is_active</text>
   <rect width="86" height="20" x="762" y="179" style="fill:none;stroke:black;"/>
   <text width="86" height="20" x="767" y="193" style="fill:black;" font-family="Arial" font-size="16px">created_at</text>
   <rect width="86" height="20" x="762" y="199" style="fill:none;stroke:black;"/>
   <text width="86" height="20" x="767" y="213" style="fill:black;" font-family="Arial" font-size="16px">updated_at</text>
   <rect width="127" height="20" x="984" y="14" style="fill:#007;stroke:black;"/>
   <text width="127" height="20" x="989" y="28" style="fill:#fff;" font-family="Arial" font-size="16px"> users</text>
   <rect width="127" height="20" x="984" y="34" style="fill:#aea;stroke:black;"/>
   <text width="127" height="20" x="989" y="48" style="fill:black;" font-family="Arial" font-size="16px">id</text>
   <rect width="127" height="20" x="984" y="54" style="fill:none;stroke:black;"/>
   <text width="127" height="20" x="989" y="68" style="fill:black;" font-family="Arial" font-size="16px">name</text>
   <rect width="127" height="20" x="984" y="74" style="fill:none;stroke:black;"/>
   <text width="127" height="20" x="989" y="88" style="fill:black;" font-family="Arial" font-size="16px">email</text>
   <rect width="127" height="20" x="984" y="94" style="fill:none;stroke:black;"/>
   <text width="127" height="20" x="989" y="108" style="fill:black;" font-family="Arial" font-size="16px">email_verified_at</text>
   <rect width="127" height="20" x="984" y="114" style="fill:none;stroke:black;"/>
   <text width="127" height="20" x="989" y="128" style="fill:black;" font-family="Arial" font-size="16px">password</text>
   <rect width="127" height="20" x="984" y="134" style="fill:none;stroke:black;"/>
   <text width="127" height="20" x="989" y="148" style="fill:black;" font-family="Arial" font-size="16px">role_id</text>
   <rect width="127" height="20" x="984" y="154" style="fill:none;stroke:black;"/>
   <text width="127" height="20" x="989" y="168" style="fill:black;" font-family="Arial" font-size="16px">remember_token</text>
   <rect width="127" height="20" x="984" y="174" style="fill:none;stroke:black;"/>
   <text width="127" height="20" x="989" y="188" style="fill:black;" font-family="Arial" font-size="16px">created_at</text>
   <rect width="127" height="20" x="984" y="194" style="fill:none;stroke:black;"/>
   <text width="127" height="20" x="989" y="208" style="fill:black;" font-family="Arial" font-size="16px">updated_at</text>
   <rect width="171" height="20" x="1257" y="475" style="fill:#007;stroke:black;"/>
   <text width="171" height="20" x="1262" y="489" style="fill:#fff;" font-family="Arial" font-size="16px"> user_details</text>
   <rect width="171" height="20" x="1257" y="495" style="fill:#aea;stroke:black;"/>
   <text width="171" height="20" x="1262" y="509" style="fill:black;" font-family="Arial" font-size="16px">id</text>
   <rect width="171" height="20" x="1257" y="515" style="fill:none;stroke:black;"/>
   <text width="171" height="20" x="1262" y="529" style="fill:black;" font-family="Arial" font-size="16px">user_id</text>
   <rect width="171" height="20" x="1257" y="535" style="fill:none;stroke:black;"/>
   <text width="171" height="20" x="1262" y="549" style="fill:black;" font-family="Arial" font-size="16px">first_name</text>
   <rect width="171" height="20" x="1257" y="555" style="fill:none;stroke:black;"/>
   <text width="171" height="20" x="1262" y="569" style="fill:black;" font-family="Arial" font-size="16px">middle_initial</text>
   <rect width="171" height="20" x="1257" y="575" style="fill:none;stroke:black;"/>
   <text width="171" height="20" x="1262" y="589" style="fill:black;" font-family="Arial" font-size="16px">last_name</text>
   <rect width="171" height="20" x="1257" y="595" style="fill:none;stroke:black;"/>
   <text width="171" height="20" x="1262" y="609" style="fill:black;" font-family="Arial" font-size="16px">suffix</text>
   <rect width="171" height="20" x="1257" y="615" style="fill:none;stroke:black;"/>
   <text width="171" height="20" x="1262" y="629" style="fill:black;" font-family="Arial" font-size="16px">gender</text>
   <rect width="171" height="20" x="1257" y="635" style="fill:none;stroke:black;"/>
   <text width="171" height="20" x="1262" y="649" style="fill:black;" font-family="Arial" font-size="16px">dob</text>
   <rect width="171" height="20" x="1257" y="655" style="fill:none;stroke:black;"/>
   <text width="171" height="20" x="1262" y="669" style="fill:black;" font-family="Arial" font-size="16px">preferred_name</text>
   <rect width="171" height="20" x="1257" y="675" style="fill:none;stroke:black;"/>
   <text width="171" height="20" x="1262" y="689" style="fill:black;" font-family="Arial" font-size="16px">social_security_number</text>
   <rect width="171" height="20" x="1257" y="695" style="fill:none;stroke:black;"/>
   <text width="171" height="20" x="1262" y="709" style="fill:black;" font-family="Arial" font-size="16px">user_image</text>
   <rect width="171" height="20" x="1257" y="715" style="fill:none;stroke:black;"/>
   <text width="171" height="20" x="1262" y="729" style="fill:black;" font-family="Arial" font-size="16px">contact_number</text>
   <rect width="171" height="20" x="1257" y="735" style="fill:none;stroke:black;"/>
   <text width="171" height="20" x="1262" y="749" style="fill:black;" font-family="Arial" font-size="16px">alternate_number</text>
   <rect width="171" height="20" x="1257" y="755" style="fill:none;stroke:black;"/>
   <text width="171" height="20" x="1262" y="769" style="fill:black;" font-family="Arial" font-size="16px">emergency_number</text>
   <rect width="171" height="20" x="1257" y="775" style="fill:none;stroke:black;"/>
   <text width="171" height="20" x="1262" y="789" style="fill:black;" font-family="Arial" font-size="16px">address</text>
   <rect width="171" height="20" x="1257" y="795" style="fill:none;stroke:black;"/>
   <text width="171" height="20" x="1262" y="809" style="fill:black;" font-family="Arial" font-size="16px">state</text>
   <rect width="171" height="20" x="1257" y="815" style="fill:none;stroke:black;"/>
   <text width="171" height="20" x="1262" y="829" style="fill:black;" font-family="Arial" font-size="16px">zipcode</text>
   <rect width="171" height="20" x="1257" y="835" style="fill:none;stroke:black;"/>
   <text width="171" height="20" x="1262" y="849" style="fill:black;" font-family="Arial" font-size="16px">country</text>
   <rect width="171" height="20" x="1257" y="855" style="fill:none;stroke:black;"/>
   <text width="171" height="20" x="1262" y="869" style="fill:black;" font-family="Arial" font-size="16px">company_name</text>
   <rect width="171" height="20" x="1257" y="875" style="fill:none;stroke:black;"/>
   <text width="171" height="20" x="1262" y="889" style="fill:black;" font-family="Arial" font-size="16px">designation</text>
   <rect width="171" height="20" x="1257" y="895" style="fill:none;stroke:black;"/>
   <text width="171" height="20" x="1262" y="909" style="fill:black;" font-family="Arial" font-size="16px">annual_income</text>
   <rect width="171" height="20" x="1257" y="915" style="fill:none;stroke:black;"/>
   <text width="171" height="20" x="1262" y="929" style="fill:black;" font-family="Arial" font-size="16px">employment_type</text>
   <rect width="171" height="20" x="1257" y="935" style="fill:none;stroke:black;"/>
   <text width="171" height="20" x="1262" y="949" style="fill:black;" font-family="Arial" font-size="16px">company_address</text>
   <rect width="171" height="20" x="1257" y="955" style="fill:none;stroke:black;"/>
   <text width="171" height="20" x="1262" y="969" style="fill:black;" font-family="Arial" font-size="16px">company_state</text>
   <rect width="171" height="20" x="1257" y="975" style="fill:none;stroke:black;"/>
   <text width="171" height="20" x="1262" y="989" style="fill:black;" font-family="Arial" font-size="16px">company_city</text>
   <rect width="171" height="20" x="1257" y="995" style="fill:none;stroke:black;"/>
   <text width="171" height="20" x="1262" y="1009" style="fill:black;" font-family="Arial" font-size="16px">company_zip</text>
   <rect width="171" height="20" x="1257" y="1015" style="fill:none;stroke:black;"/>
   <text width="171" height="20" x="1262" y="1029" style="fill:black;" font-family="Arial" font-size="16px">created_at</text>
   <rect width="171" height="20" x="1257" y="1035" style="fill:none;stroke:black;"/>
   <text width="171" height="20" x="1262" y="1049" style="fill:black;" font-family="Arial" font-size="16px">updated_at</text>
   <rect width="125" height="20" x="1280" y="20" style="fill:#007;stroke:black;"/>
   <text width="125" height="20" x="1285" y="34" style="fill:#fff;" font-family="Arial" font-size="16px"> user_dms</text>
   <rect width="125" height="20" x="1280" y="40" style="fill:#aea;stroke:black;"/>
   <text width="125" height="20" x="1285" y="54" style="fill:black;" font-family="Arial" font-size="16px">id</text>
   <rect width="125" height="20" x="1280" y="60" style="fill:none;stroke:black;"/>
   <text width="125" height="20" x="1285" y="74" style="fill:black;" font-family="Arial" font-size="16px">user_id</text>
   <rect width="125" height="20" x="1280" y="80" style="fill:none;stroke:black;"/>
   <text width="125" height="20" x="1285" y="94" style="fill:black;" font-family="Arial" font-size="16px">document_name</text>
   <rect width="125" height="20" x="1280" y="100" style="fill:none;stroke:black;"/>
   <text width="125" height="20" x="1285" y="114" style="fill:black;" font-family="Arial" font-size="16px">document_path</text>
   <rect width="125" height="20" x="1280" y="120" style="fill:none;stroke:black;"/>
   <text width="125" height="20" x="1285" y="134" style="fill:black;" font-family="Arial" font-size="16px">document_type</text>
   <rect width="125" height="20" x="1280" y="140" style="fill:none;stroke:black;"/>
   <text width="125" height="20" x="1285" y="154" style="fill:black;" font-family="Arial" font-size="16px">status</text>
   <rect width="125" height="20" x="1280" y="160" style="fill:none;stroke:black;"/>
   <text width="125" height="20" x="1285" y="174" style="fill:black;" font-family="Arial" font-size="16px">created_at</text>
   <rect width="125" height="20" x="1280" y="180" style="fill:none;stroke:black;"/>
   <text width="125" height="20" x="1285" y="194" style="fill:black;" font-family="Arial" font-size="16px">updated_at</text>
   <rect width="140" height="20" x="1261" y="223" style="fill:#007;stroke:black;"/>
   <text width="140" height="20" x="1266" y="237" style="fill:#fff;" font-family="Arial" font-size="16px"> user_family_details</text>
   <rect width="140" height="20" x="1261" y="243" style="fill:#aea;stroke:black;"/>
   <text width="140" height="20" x="1266" y="257" style="fill:black;" font-family="Arial" font-size="16px">id</text>
   <rect width="140" height="20" x="1261" y="263" style="fill:none;stroke:black;"/>
   <text width="140" height="20" x="1266" y="277" style="fill:black;" font-family="Arial" font-size="16px">user_id</text>
   <rect width="140" height="20" x="1261" y="283" style="fill:none;stroke:black;"/>
   <text width="140" height="20" x="1266" y="297" style="fill:black;" font-family="Arial" font-size="16px">first_name</text>
   <rect width="140" height="20" x="1261" y="303" style="fill:none;stroke:black;"/>
   <text width="140" height="20" x="1266" y="317" style="fill:black;" font-family="Arial" font-size="16px">last_name</text>
   <rect width="140" height="20" x="1261" y="323" style="fill:none;stroke:black;"/>
   <text width="140" height="20" x="1266" y="337" style="fill:black;" font-family="Arial" font-size="16px">phone</text>
   <rect width="140" height="20" x="1261" y="343" style="fill:none;stroke:black;"/>
   <text width="140" height="20" x="1266" y="357" style="fill:black;" font-family="Arial" font-size="16px">designation</text>
   <rect width="140" height="20" x="1261" y="363" style="fill:none;stroke:black;"/>
   <text width="140" height="20" x="1266" y="377" style="fill:black;" font-family="Arial" font-size="16px">employment_type</text>
   <rect width="140" height="20" x="1261" y="383" style="fill:none;stroke:black;"/>
   <text width="140" height="20" x="1266" y="397" style="fill:black;" font-family="Arial" font-size="16px">location</text>
   <rect width="140" height="20" x="1261" y="403" style="fill:none;stroke:black;"/>
   <text width="140" height="20" x="1266" y="417" style="fill:black;" font-family="Arial" font-size="16px">email</text>
   <rect width="140" height="20" x="1261" y="423" style="fill:none;stroke:black;"/>
   <text width="140" height="20" x="1266" y="437" style="fill:black;" font-family="Arial" font-size="16px">status</text>
   <rect width="140" height="20" x="1261" y="443" style="fill:none;stroke:black;"/>
   <text width="140" height="20" x="1266" y="457" style="fill:black;" font-family="Arial" font-size="16px">created_at</text>
   <rect width="140" height="20" x="1261" y="463" style="fill:none;stroke:black;"/>
   <text width="140" height="20" x="1266" y="477" style="fill:black;" font-family="Arial" font-size="16px">update_at</text>
</svg>
